<?xml version="1.0" encoding="utf-8"?>
<!-- Generator: Adobe Illustrator 23.1.0, SVG Export Plug-In . SVG Version: 6.00 Build 0)  -->
<svg version="1.1" id="Capa_1" xmlns="http://www.w3.org/2000/svg" xmlns:xlink="http://www.w3.org/1999/xlink" x="0px" y="0px"
	 viewBox="0 0 59 59" style="enable-background:new 0 0 59 59;" xml:space="preserve">
<style type="text/css">
	.st0{fill:#6C1D5F;}
</style>
<g>
	<path class="st0" d="M59,44.1c-0.1-0.4-0.4-0.6-0.8-0.7l-7.8-1.1l-3.5-6.8c-0.3-0.7-1.4-0.7-1.8,0l-3.5,6.8l-7.8,1.1
		c-0.4,0.1-0.7,0.3-0.8,0.7s0,0.8,0.3,1l5.6,5.3l-1.3,7.4c-0.1,0.4,0.1,0.8,0.4,1c0.3,0.2,0.7,0.3,1,0.1l7-3.5l7,3.5
		c0.1,0.1,0.3,0.1,0.5,0.1c0.2,0,0.4-0.1,0.6-0.2c0.3-0.2,0.5-0.6,0.4-1l-1.3-7.4l5.6-5.3C59,44.9,59.1,44.5,59,44.1z M51.3,49.3
		c-0.2,0.2-0.4,0.6-0.3,0.9l1.1,6l-5.6-2.9c-0.1-0.1-0.3-0.1-0.5-0.1s-0.3,0-0.5,0.1l-5.6,2.9l1.1-6c0.1-0.3-0.1-0.7-0.3-0.9
		l-4.5-4.2l6.2-0.9c0.3,0,0.6-0.2,0.8-0.5l2.8-5.5l2.8,5.5c0.1,0.3,0.4,0.5,0.8,0.5l6.2,0.9L51.3,49.3z"/>
	<path class="st0" d="M36,32h9V21h-9h-2h-7h-2h-7h-2H7v9v2v7v2v9h9h2h9v-9h9V32z M36,23h7v7h-7V23z M27,23h7v7h-7C27,30,27,23,27,23
		z M18,23h7v7h-7V23z M25,39h-7v-7h7V39z M9,23h7v7H9V23z M9,32h7v7H9V32z M16,48H9v-7h7V48z M25,48h-7v-7h7V48z M34,39h-7v-7h7V39z
		"/>
	<path class="st0" d="M26,55H2V16h48v17c0,0.6,0.4,1,1,1s1-0.4,1-1V15V5c0-0.6-0.4-1-1-1h-5V1c0-0.6-0.4-1-1-1h-7c-0.6,0-1,0.4-1,1
		v3H15V1c0-0.6-0.4-1-1-1H7C6.5,0,6,0.4,6,1v3H1C0.5,4,0,4.4,0,5v10v41c0,0.6,0.4,1,1,1h25c0.6,0,1-0.4,1-1S26.6,55,26,55z M39,2h5
		v3v3h-5V5V2z M8,2h5v3v3H8V5V2z M2,6h4v3c0,0.6,0.4,1,1,1h7c0.6,0,1-0.4,1-1V6h22v3c0,0.6,0.4,1,1,1h7c0.6,0,1-0.4,1-1V6h4v8H2
		C2,14,2,6,2,6z"/>
</g>
</svg>
