<?xml version="1.0" encoding="utf-8"?>
<!-- Generator: Adobe Illustrator 23.1.0, SVG Export Plug-In . SVG Version: 6.00 Build 0)  -->
<svg version="1.1" id="Capa_1" xmlns="http://www.w3.org/2000/svg" xmlns:xlink="http://www.w3.org/1999/xlink" x="0px" y="0px"
	 viewBox="0 0 512 512" style="enable-background:new 0 0 512 512;" xml:space="preserve">
<style type="text/css">
	.st0{fill:#6C1D5F;}
</style>
<g>
	<g>
		<path class="st0" d="M510.4,215.6l-82-125c-1.8-2.8-5-4.5-8.4-4.5H92.4c-3.4,0-6.5,1.7-8.3,4.5L1.9,215.2c-0.4,0.5-0.7,1.1-1,1.7
			c-1.6,3.6-1,7.8,1.6,10.7l41.6,47.5c3.6,4.2,10,4.6,14.1,0.9c4.2-3.6,4.6-10,0.9-14.1L32,231.1h134.5l67.6,230.7l-76.4-87.2
			c-3.6-4.2-10-4.6-14.1-0.9c-4.2,3.6-4.6,10-0.9,14.1l105.8,120.8c1.9,2.2,4.6,3.4,7.5,3.4c2.9,0,5.6-1.2,7.5-3.4l112.6-128.6
			c3.6-4.2,3.2-10.5-0.9-14.1c-4.2-3.6-10.5-3.2-14.1,0.9l-83.2,95l67.6-230.7H480l-62.2,71c-3.6,4.2-3.2,10.5,0.9,14.1
			c1.9,1.7,4.2,2.5,6.6,2.5c2.8,0,5.5-1.2,7.5-3.4l76.7-87.6C512.5,224.3,512.8,219.3,510.4,215.6z M28.6,211.1l63.8-96.8l63.5,96.8
			H28.6z M110.9,106h126.6l-63.3,96.5L110.9,106z M256,114.3l63.5,96.8h-127L256,114.3z M256,465.4l-68.6-234.4h137.3L256,465.4z
			 M338,202.8L274.5,106h127L338,202.8z M356.5,211.1l63.5-96.8l63.5,96.8H356.5z"/>
	</g>
</g>
<g>
	<g>
		<path class="st0" d="M157.2,327c-25.8,0-46.8-21-46.8-46.8c0-5.5-4.5-10-10-10s-10,4.5-10,10c0,25.8-21,46.8-46.8,46.8
			c-5.5,0-10,4.5-10,10s4.5,10,10,10c25.8,0,46.8,21,46.8,46.8c0,5.5,4.5,10,10,10s10-4.5,10-10c0-25.8,21-46.8,46.8-46.8
			c5.5,0,10-4.5,10-10C167.2,331.5,162.7,327,157.2,327z M100.4,358.7c-5.5-8.8-12.9-16.2-21.7-21.7c8.8-5.5,16.2-12.9,21.7-21.7
			c5.5,8.8,12.9,16.2,21.7,21.7C113.3,342.5,105.9,349.9,100.4,358.7z"/>
	</g>
</g>
<g>
	<g>
		<path class="st0" d="M502,40c-16.5,0-30-13.5-30-30c0-5.5-4.5-10-10-10s-10,4.5-10,10c0,16.5-13.5,30-30,30c-5.5,0-10,4.5-10,10
			s4.5,10,10,10c16.5,0,30,13.5,30,30c0,5.5,4.5,10,10,10s10-4.5,10-10c0-16.5,13.5-30,30-30c5.5,0,10-4.5,10-10S507.5,40,502,40z
			 M462,60.1c-2.9-3.8-6.2-7.2-10-10c3.8-2.9,7.2-6.2,10-10c2.9,3.8,6.2,7.2,10,10C468.2,52.9,464.9,56.3,462,60.1z"/>
	</g>
</g>
<g>
	<g>
		<path class="st0" d="M402.8,335.4c-1.9-1.9-4.4-2.9-7.1-2.9c-2.6,0-5.2,1.1-7.1,2.9c-1.9,1.9-2.9,4.4-2.9,7.1s1.1,5.2,2.9,7.1
			c1.9,1.9,4.4,2.9,7.1,2.9c2.6,0,5.2-1.1,7.1-2.9c1.9-1.9,2.9-4.4,2.9-7.1S404.6,337.2,402.8,335.4z"/>
	</g>
</g>
</svg>
