<?xml version="1.0" encoding="utf-8"?>
<!-- Generator: Adobe Illustrator 23.1.0, SVG Export Plug-In . SVG Version: 6.00 Build 0)  -->
<svg version="1.1" id="Capa_1" xmlns="http://www.w3.org/2000/svg" xmlns:xlink="http://www.w3.org/1999/xlink" x="0px" y="0px"
	 viewBox="0 0 60 60" style="enable-background:new 0 0 60 60;" xml:space="preserve">
<style type="text/css">
	.st0{fill:#6C1D5F;}
</style>
<g>
	<circle class="st0" cx="30" cy="26" r="1"/>
	<circle class="st0" cx="33" cy="24" r="1"/>
	<circle class="st0" cx="27" cy="24" r="1"/>
	<circle class="st0" cx="24" cy="22" r="1"/>
	<circle class="st0" cx="36" cy="22" r="1"/>
	<circle class="st0" cx="39" cy="20" r="1"/>
	<circle class="st0" cx="21" cy="20" r="1"/>
	<circle class="st0" cx="30" cy="22" r="1"/>
	<circle class="st0" cx="30" cy="34" r="1"/>
	<circle class="st0" cx="30" cy="37" r="1"/>
	<circle class="st0" cx="30" cy="40" r="1"/>
	<circle class="st0" cx="30" cy="43" r="1"/>
	<circle class="st0" cx="30" cy="46" r="1"/>
	<circle class="st0" cx="30" cy="49" r="1"/>
	<path class="st0" d="M54,58h-3v-4h-5V43.8c0-2.7-1.3-5.2-3.6-6.7L31.8,30l10.6-7.1c2.2-1.5,3.6-4,3.6-6.7V6h5V2h3c0.6,0,1-0.4,1-1
		s-0.4-1-1-1h-3h-1H10H9H6C5.4,0,5,0.4,5,1s0.4,1,1,1h3v4h5v10.2c0,2.7,1.3,5.2,3.6,6.7L28.2,30l-10.6,7.1c-2.2,1.5-3.6,4-3.6,6.7
		V54H9v4H6c-0.6,0-1,0.4-1,1s0.4,1,1,1h3h1h40h1h3c0.6,0,1-0.4,1-1S54.6,58,54,58z M11,4V2h38v2h-3H14H11z M18.7,21.3
		c-1.7-1.1-2.7-3-2.7-5V6h28v10.2c0,2-1,3.9-2.7,5L30,28.8L18.7,21.3z M16,43.8c0-2,1-3.9,2.7-5L30,31.2l11.3,7.5
		c1.7,1.1,2.7,3,2.7,5V54H16V43.8z M11,56h3h32h3v2H11V56z"/>
</g>
</svg>
