<?xml version="1.0" encoding="utf-8"?>
<!-- Generator: Adobe Illustrator 23.1.0, SVG Export Plug-In . SVG Version: 6.00 Build 0)  -->
<svg version="1.1" id="Layer_1" xmlns="http://www.w3.org/2000/svg" xmlns:xlink="http://www.w3.org/1999/xlink" x="0px" y="0px"
	 viewBox="0 0 488 488" style="enable-background:new 0 0 488 488;" xml:space="preserve">
<style type="text/css">
	.st0{fill:#F6BF58;}
	.st1{fill:#6C1D5F;}
</style>
<circle class="st0" cx="244" cy="128" r="48"/>
<g>
	<path class="st1" d="M36,367.2V488h16V368h72v112c0,4.4,3.6,8,8,8h48c4.4,0,8-3.6,8-8V352h48v120h-32v16h80v-16h-32V352h48v128
		c0,4.4,3.6,8,8,8h48c4.4,0,8-3.6,8-8V368h72v120h16V367.2c18.2-3.7,32-19.9,32-39.2V208c0-19.9-14.6-36.3-33.6-39.4
		C461.2,158.4,468,144,468,128c0-30.9-25.1-56-56-56s-56,25.1-56,56c0,19.6,10.2,36.9,25.5,46.9C371,182.1,364,194.3,364,208v56h-32
		v-40c0-28.6-21.6-52.3-49.4-55.6c10.7-10.2,17.4-24.5,17.4-40.4c0-30.9-25.1-56-56-56s-56,25.1-56,56c0,15.9,6.7,30.2,17.4,40.4
		c-27.8,3.3-49.4,26.9-49.4,55.6v40h-32v-56c0-13.7-7-25.9-17.5-33.1c15.4-10,25.5-27.3,25.5-46.9c0-30.9-25.1-56-56-56
		s-56,25.1-56,56c0,16,6.8,30.4,17.6,40.6C18.6,171.7,4,188.1,4,208v120C4,347.3,17.8,363.5,36,367.2z M300.9,336H187.1
		c-1.2-5.9-3.6-11.4-7.1-16h24h80h24C304.5,324.6,302.1,330.1,300.9,336z M372,128c0-22.1,17.9-40,40-40s40,17.9,40,40
		s-17.9,40-40,40S372,150.1,372,128z M372,280c4.4,0,8-3.6,8-8v-64c0-13.2,10.8-24,24-24h40c13.2,0,24,10.8,24,24v120
		c0,13.2-10.8,24-24,24h-88c-4.4,0-8,3.6-8,8v112h-32V344c0-13.2,10.8-24,24-24h72c4.4,0,8-3.6,8-8v-80h-16v72H292v-24H372z
		 M256.5,184L244,217.2L231.5,184H256.5z M204,128c0-22.1,17.9-40,40-40s40,17.9,40,40s-17.9,40-40,40S204,150.1,204,128z M172,224
		c0-22.1,17.9-40,40-40h2.5l22.1,58.8c1.2,3.1,4.2,5.2,7.5,5.2s6.3-2.1,7.5-5.2l22-58.8h2.5c22.1,0,40,17.9,40,40v40h-32
		c-4.4,0-8,3.6-8,8v32h-64v-32c0-4.4-3.6-8-8-8h-32V224z M36,128c0-22.1,17.9-40,40-40s40,17.9,40,40s-17.9,40-40,40
		S36,150.1,36,128z M20,208c0-13.2,10.8-24,24-24h40c13.2,0,24,10.8,24,24v64c0,4.4,3.6,8,8,8h80v24H84v-72H68v80c0,4.4,3.6,8,8,8
		h72c13.2,0,24,10.8,24,24v128h-32V360c0-4.4-3.6-8-8-8H44c-13.2,0-24-10.8-24-24V208z"/>
	<rect x="236" y="264" class="st1" width="16" height="16"/>
	<path class="st1" d="M128.4,79.2c1.1,0.6,2.4,0.8,3.6,0.8c1.7,0,3.4-0.5,4.8-1.6L166.7,56H204c4.4,0,8-3.6,8-8V8c0-4.4-3.6-8-8-8
		H92c-4.4,0-8,3.6-8,8v40c0,4.4,3.6,8,8,8h32v16C124,75,125.7,77.8,128.4,79.2z M100,40V16h96v24h-32c-1.7,0-3.4,0.6-4.8,1.6L140,56
		v-8c0-4.4-3.6-8-8-8H100z"/>
	<rect x="284" y="24" class="st1" width="16" height="16"/>
	<rect x="316" y="24" class="st1" width="16" height="16"/>
	<rect x="348" y="24" class="st1" width="16" height="16"/>
</g>
</svg>
